<svg xmlns="http://www.w3.org/2000/svg" xmlns:xlink="http://www.w3.org/1999/xlink" width="1920" zoomAndPan="magnify" viewBox="0 0 1440 809.999993" height="1080" preserveAspectRatio="xMidYMid meet" version="1.0"><defs><clipPath id="94010d68ef"><path d="M 1036 287 L 1109.496094 287 L 1109.496094 361 L 1036 361 Z M 1036 287 " clip-rule="nonzero"/></clipPath><clipPath id="ccbf1b5042"><path d="M 291.246094 507 L 365 507 L 365 581 L 291.246094 581 Z M 291.246094 507 " clip-rule="nonzero"/></clipPath><clipPath id="d34762776a"><path d="M 723 730 L 743 730 L 743 756.6875 L 723 756.6875 Z M 723 730 " clip-rule="nonzero"/></clipPath><clipPath id="1f62372646"><path d="M 744 730 L 767 730 L 767 756.6875 L 744 756.6875 Z M 744 730 " clip-rule="nonzero"/></clipPath><clipPath id="b73ebc9547"><path d="M 693 730 L 712 730 L 712 756.6875 L 693 756.6875 Z M 693 730 " clip-rule="nonzero"/></clipPath><clipPath id="c96d6385a1"><path d="M 668 730 L 692 730 L 692 756.6875 L 668 756.6875 Z M 668 730 " clip-rule="nonzero"/></clipPath><clipPath id="d7a26f5810"><path d="M 714 14.9375 L 721 14.9375 L 721 272 L 714 272 Z M 714 14.9375 " clip-rule="nonzero"/></clipPath></defs><path fill="#ec4888" d="M 1010.328125 182.5 L 999.925781 224.375 L 958.054688 234.773438 L 999.925781 245.175781 L 1010.328125 287.050781 L 1020.730469 245.175781 L 1062.605469 234.773438 L 1020.730469 224.375 Z M 1010.328125 182.5 " fill-opacity="1" fill-rule="nonzero"/><g clip-path="url(#94010d68ef)"><path fill="#ec4888" d="M 1072.652344 287.050781 L 1065.386719 316.308594 L 1036.128906 323.574219 L 1065.386719 330.84375 L 1072.652344 360.101562 L 1079.921875 330.84375 L 1109.179688 323.574219 L 1079.921875 316.308594 Z M 1072.652344 287.050781 " fill-opacity="1" fill-rule="nonzero"/></g><path fill="#ec4888" d="M 982.511719 342.566406 L 976.777344 365.65625 L 953.6875 371.394531 L 976.777344 377.128906 L 982.511719 400.21875 L 988.25 377.128906 L 1011.339844 371.394531 L 988.25 365.65625 Z M 982.511719 342.566406 " fill-opacity="1" fill-rule="nonzero"/><path fill="#ec4888" d="M 390.265625 403.058594 L 400.667969 444.933594 L 442.542969 455.332031 L 400.667969 465.734375 L 390.265625 507.609375 L 379.863281 465.734375 L 337.992188 455.332031 L 379.863281 444.933594 Z M 390.265625 403.058594 " fill-opacity="1" fill-rule="nonzero"/><g clip-path="url(#ccbf1b5042)"><path fill="#ec4888" d="M 327.941406 507.609375 L 335.210938 536.867188 L 364.46875 544.132812 L 335.210938 551.402344 L 327.941406 580.660156 L 320.671875 551.402344 L 291.414062 544.132812 L 320.671875 536.867188 Z M 327.941406 507.609375 " fill-opacity="1" fill-rule="nonzero"/></g><path fill="#ec4888" d="M 418.082031 563.125 L 423.820312 586.21875 L 446.910156 591.953125 L 423.820312 597.6875 L 418.082031 620.777344 L 412.347656 597.6875 L 389.253906 591.953125 L 412.347656 586.21875 Z M 418.082031 563.125 " fill-opacity="1" fill-rule="nonzero"/><path fill="#ec4888" d="M 750.460938 404.257812 L 723.574219 404.257812 L 723.574219 380.980469 L 745.445312 380.980469 C 747.238281 388.078125 748.917969 395.851562 750.460938 404.257812 Z M 750.460938 404.257812 " fill-opacity="1" fill-rule="nonzero"/><path fill="#ec4888" d="M 755.652344 439.175781 L 723.574219 439.175781 L 723.574219 415.898438 L 752.425781 415.898438 C 753.601562 423.28125 754.675781 431.050781 755.652344 439.175781 Z M 755.652344 439.175781 " fill-opacity="1" fill-rule="nonzero"/><path fill="#ec4888" d="M 759.832031 485.730469 C 760.300781 493.320312 760.691406 501.085938 760.996094 509.007812 L 723.574219 509.007812 L 723.574219 485.730469 Z M 759.832031 485.730469 " fill-opacity="1" fill-rule="nonzero"/><path fill="#ec4888" d="M 756.96875 450.816406 C 757.746094 458.328125 758.433594 466.097656 759.035156 474.09375 L 723.574219 474.09375 L 723.574219 450.816406 Z M 756.96875 450.816406 " fill-opacity="1" fill-rule="nonzero"/><path fill="#ec4888" d="M 723.574219 648.675781 L 723.574219 625.398438 L 759.035156 625.398438 C 758.433594 633.394531 757.746094 641.164062 756.96875 648.675781 Z M 723.574219 648.675781 " fill-opacity="1" fill-rule="nonzero"/><path fill="#ec4888" d="M 761.738281 555.566406 C 761.699219 563.441406 761.566406 571.199219 761.359375 578.84375 L 723.574219 578.84375 L 723.574219 555.566406 Z M 761.738281 555.566406 " fill-opacity="1" fill-rule="nonzero"/><path fill="#ec4888" d="M 760.996094 590.480469 C 760.691406 598.40625 760.300781 606.167969 759.832031 613.757812 L 723.574219 613.757812 L 723.574219 590.480469 Z M 760.996094 590.480469 " fill-opacity="1" fill-rule="nonzero"/><path fill="#ec4888" d="M 761.359375 520.648438 C 761.566406 528.289062 761.699219 536.050781 761.738281 543.925781 L 723.574219 543.925781 L 723.574219 520.648438 Z M 761.359375 520.648438 " fill-opacity="1" fill-rule="nonzero"/><g clip-path="url(#d34762776a)"><path fill="#ec4888" d="M 723.574219 730.148438 L 742.183594 730.148438 C 738.738281 741.386719 734.96875 750.367188 730.933594 756.335938 L 723.574219 756.335938 Z M 723.574219 730.148438 " fill-opacity="1" fill-rule="nonzero"/></g><path fill="#ec4888" d="M 723.574219 718.507812 L 723.574219 695.230469 L 750.460938 695.230469 C 748.917969 703.640625 747.238281 711.414062 745.445312 718.507812 Z M 723.574219 718.507812 " fill-opacity="1" fill-rule="nonzero"/><path fill="#ec4888" d="M 723.574219 660.316406 L 755.652344 660.316406 C 754.675781 668.441406 753.601562 676.207031 752.425781 683.59375 L 723.574219 683.59375 Z M 723.574219 660.316406 " fill-opacity="1" fill-rule="nonzero"/><path fill="#ec4888" d="M 770.640625 473.21875 C 770.066406 465.53125 769.402344 458.0625 768.660156 450.816406 L 796.203125 450.816406 C 797.75 458.328125 799.125 466.09375 800.320312 474.09375 L 770.707031 474.09375 C 770.707031 474.09375 770.640625 473.21875 770.640625 473.21875 Z M 770.640625 473.21875 " fill-opacity="1" fill-rule="nonzero"/><path fill="#ec4888" d="M 773.382812 543.859375 C 773.335938 536.003906 773.207031 528.273438 772.996094 520.648438 L 804.992188 520.648438 C 805.40625 528.289062 805.65625 536.050781 805.738281 543.925781 L 773.382812 543.925781 Z M 773.382812 543.859375 " fill-opacity="1" fill-rule="nonzero"/><path fill="#ec4888" d="M 772.625 508.566406 C 772.328125 500.792969 771.9375 493.1875 771.484375 485.730469 L 801.90625 485.730469 C 802.84375 493.320312 803.617188 501.085938 804.222656 509.007812 L 772.644531 509.007812 C 772.644531 509.007812 772.625 508.566406 772.625 508.566406 Z M 772.625 508.566406 " fill-opacity="1" fill-rule="nonzero"/><path fill="#ec4888" d="M 767.210938 437.796875 C 766.308594 430.300781 765.292969 422.96875 764.195312 415.898438 L 787.195312 415.898438 C 789.527344 423.28125 791.667969 431.050781 793.609375 439.175781 L 767.375 439.175781 C 767.375 439.175781 767.210938 437.796875 767.210938 437.796875 Z M 767.210938 437.796875 " fill-opacity="1" fill-rule="nonzero"/><path fill="#ec4888" d="M 761.90625 402.15625 C 760.523438 394.609375 758.996094 387.566406 757.390625 380.980469 L 773.320312 380.980469 C 776.882812 388.078125 780.214844 395.851562 783.285156 404.257812 L 762.292969 404.257812 C 762.292969 404.257812 761.90625 402.15625 761.90625 402.15625 Z M 761.90625 402.15625 " fill-opacity="1" fill-rule="nonzero"/><path fill="#ec4888" d="M 767.210938 661.699219 L 767.375 660.316406 L 793.609375 660.316406 C 791.667969 668.441406 789.527344 676.207031 787.195312 683.59375 L 764.195312 683.59375 C 765.289062 676.523438 766.308594 669.1875 767.210938 661.699219 Z M 767.210938 661.699219 " fill-opacity="1" fill-rule="nonzero"/><path fill="#ec4888" d="M 761.90625 697.335938 L 762.296875 695.230469 L 783.285156 695.230469 C 780.214844 703.640625 776.882812 711.414062 773.320312 718.507812 L 757.390625 718.507812 C 758.996094 711.921875 760.523438 704.878906 761.90625 697.335938 Z M 761.90625 697.335938 " fill-opacity="1" fill-rule="nonzero"/><path fill="#ec4888" d="M 773.382812 555.632812 L 773.382812 555.566406 L 805.738281 555.566406 C 805.65625 563.4375 805.40625 571.203125 804.992188 578.84375 L 772.996094 578.84375 C 773.207031 571.214844 773.335938 563.484375 773.382812 555.632812 Z M 773.382812 555.632812 " fill-opacity="1" fill-rule="nonzero"/><g clip-path="url(#1f62372646)"><path fill="#ec4888" d="M 753.308594 733.558594 L 754.355469 730.148438 L 766.847656 730.148438 C 759.988281 741.394531 752.488281 750.371094 744.460938 756.335938 L 744.375 756.335938 C 747.523438 750.285156 750.476562 742.804688 753.308594 733.558594 Z M 753.308594 733.558594 " fill-opacity="1" fill-rule="nonzero"/></g><path fill="#ec4888" d="M 770.640625 626.273438 L 770.707031 625.398438 L 800.320312 625.398438 C 799.125 633.394531 797.75 641.160156 796.203125 648.675781 L 768.660156 648.675781 C 769.402344 641.425781 770.066406 633.960938 770.640625 626.273438 Z M 770.640625 626.273438 " fill-opacity="1" fill-rule="nonzero"/><path fill="#ec4888" d="M 772.625 590.925781 L 772.644531 590.480469 L 804.222656 590.480469 C 803.617188 598.40625 802.84375 606.167969 801.90625 613.757812 L 771.484375 613.757812 C 771.9375 606.304688 772.328125 598.695312 772.625 590.925781 Z M 772.625 590.925781 " fill-opacity="1" fill-rule="nonzero"/><path fill="#ec4888" d="M 811.832031 472.378906 C 810.738281 465.054688 809.453125 457.832031 808.050781 450.816406 L 835.457031 450.816406 C 837.808594 458.328125 839.898438 466.09375 841.710938 474.09375 L 812.089844 474.09375 C 812.089844 474.09375 811.832031 472.378906 811.832031 472.378906 Z M 811.832031 472.378906 " fill-opacity="1" fill-rule="nonzero"/><path fill="#ec4888" d="M 815.824219 508.128906 C 815.25 500.609375 814.484375 493.097656 813.605469 485.730469 L 844.132812 485.730469 C 845.554688 493.320312 846.722656 501.085938 847.632812 509.007812 L 815.890625 509.007812 C 815.890625 509.007812 815.824219 508.128906 815.824219 508.128906 Z M 815.824219 508.128906 " fill-opacity="1" fill-rule="nonzero"/><path fill="#ec4888" d="M 817.378906 543.800781 C 817.296875 536.003906 817.042969 528.222656 816.640625 520.648438 L 848.789062 520.648438 C 849.414062 528.289062 849.800781 536.050781 849.925781 543.925781 L 817.382812 543.925781 Z M 817.378906 543.800781 " fill-opacity="1" fill-rule="nonzero"/><path fill="#ec4888" d="M 804.929688 436.476562 C 803.242188 429.390625 801.339844 422.523438 799.332031 415.898438 L 821.804688 415.898438 C 825.347656 423.28125 828.601562 431.046875 831.542969 439.175781 L 805.570312 439.175781 C 805.570312 439.175781 804.929688 436.476562 804.929688 436.476562 Z M 804.929688 436.476562 " fill-opacity="1" fill-rule="nonzero"/><path fill="#ec4888" d="M 776.785156 363.289062 C 773.417969 357.761719 769.902344 352.898438 766.296875 348.484375 C 774.992188 354.003906 783.242188 361.027344 790.9375 369.34375 L 780.472656 369.34375 C 780.472656 369.34375 776.785156 363.289062 776.785156 363.289062 Z M 776.785156 363.289062 " fill-opacity="1" fill-rule="nonzero"/><path fill="#ec4888" d="M 794.214844 400.269531 C 791.726562 393.449219 788.992188 387.070312 786.144531 380.980469 L 800.753906 380.980469 C 806.152344 388.074219 811.207031 395.851562 815.859375 404.257812 L 795.671875 404.257812 C 795.671875 404.257812 794.214844 400.269531 794.214844 400.269531 Z M 794.214844 400.269531 " fill-opacity="1" fill-rule="nonzero"/><path fill="#ec4888" d="M 794.214844 699.222656 L 795.671875 695.230469 L 815.859375 695.230469 C 811.207031 703.636719 806.152344 711.414062 800.753906 718.507812 L 786.144531 718.507812 C 788.992188 712.417969 791.726562 706.035156 794.214844 699.222656 Z M 794.214844 699.222656 " fill-opacity="1" fill-rule="nonzero"/><path fill="#ec4888" d="M 776.785156 736.203125 L 780.476562 730.148438 L 790.9375 730.148438 C 783.242188 738.460938 774.996094 745.484375 766.300781 751.003906 C 769.902344 746.589844 773.417969 741.726562 776.785156 736.203125 Z M 776.785156 736.203125 " fill-opacity="1" fill-rule="nonzero"/><path fill="#ec4888" d="M 804.929688 663.015625 L 805.570312 660.316406 L 831.542969 660.316406 C 828.601562 668.441406 825.347656 676.207031 821.804688 683.59375 L 799.328125 683.59375 C 801.335938 676.980469 803.234375 670.117188 804.929688 663.015625 Z M 804.929688 663.015625 " fill-opacity="1" fill-rule="nonzero"/><path fill="#ec4888" d="M 811.832031 627.117188 L 812.089844 625.398438 L 841.710938 625.398438 C 839.898438 633.398438 837.808594 641.160156 835.457031 648.675781 L 808.050781 648.675781 C 809.453125 641.65625 810.738281 634.433594 811.832031 627.117188 Z M 811.832031 627.117188 " fill-opacity="1" fill-rule="nonzero"/><path fill="#ec4888" d="M 817.378906 555.691406 L 817.382812 555.566406 L 849.925781 555.566406 C 849.800781 563.4375 849.414062 571.203125 848.789062 578.84375 L 816.640625 578.84375 C 817.042969 571.265625 817.296875 563.484375 817.378906 555.691406 Z M 817.378906 555.691406 " fill-opacity="1" fill-rule="nonzero"/><path fill="#ec4888" d="M 815.824219 591.367188 L 815.890625 590.480469 L 847.632812 590.480469 C 846.722656 598.40625 845.554688 606.171875 844.132812 613.757812 L 813.605469 613.757812 C 814.484375 606.402344 815.25 598.886719 815.824219 591.367188 Z M 815.824219 591.367188 " fill-opacity="1" fill-rule="nonzero"/><path fill="#ec4888" d="M 842.488281 435.210938 C 840.070312 428.546875 837.375 422.125 834.550781 415.898438 L 855.691406 415.898438 C 860.46875 423.28125 864.855469 431.046875 868.824219 439.175781 L 843.921875 439.175781 C 843.921875 439.175781 842.488281 435.210938 842.488281 435.210938 Z M 842.488281 435.210938 " fill-opacity="1" fill-rule="nonzero"/><path fill="#ec4888" d="M 861.558594 543.742188 C 861.441406 536.105469 861.054688 528.34375 860.449219 520.648438 L 892.089844 520.648438 C 892.949219 528.292969 893.527344 536.046875 893.710938 543.925781 L 861.5625 543.925781 Z M 861.558594 543.742188 " fill-opacity="1" fill-rule="nonzero"/><path fill="#ec4888" d="M 853.058594 471.523438 C 851.472656 464.519531 849.601562 457.59375 847.574219 450.816406 L 874.253906 450.816406 C 877.410156 458.324219 880.207031 466.097656 882.636719 474.09375 L 853.640625 474.09375 C 853.640625 474.09375 853.058594 471.523438 853.058594 471.523438 Z M 853.058594 471.523438 " fill-opacity="1" fill-rule="nonzero"/><path fill="#ec4888" d="M 799.476562 361.4375 C 797.253906 359.035156 794.980469 356.746094 792.675781 354.550781 C 800.136719 358.886719 807.316406 363.835938 814.175781 369.34375 L 806.792969 369.34375 C 806.792969 369.34375 799.476562 361.4375 799.476562 361.4375 Z M 799.476562 361.4375 " fill-opacity="1" fill-rule="nonzero"/><path fill="#ec4888" d="M 826.039062 398.628906 C 822.609375 392.425781 818.851562 386.601562 814.964844 380.980469 L 827.3125 380.980469 C 834.628906 388.082031 841.5 395.832031 847.800781 404.257812 L 829.152344 404.257812 C 829.152344 404.257812 826.039062 398.628906 826.039062 398.628906 Z M 826.039062 398.628906 " fill-opacity="1" fill-rule="nonzero"/><path fill="#ec4888" d="M 859.195312 507.675781 C 858.335938 500.214844 857.222656 492.863281 855.9375 485.730469 L 885.832031 485.730469 C 887.765625 493.324219 889.398438 501.078125 890.644531 509.007812 L 859.347656 509.007812 C 859.347656 509.007812 859.195312 507.675781 859.195312 507.675781 Z M 859.195312 507.675781 " fill-opacity="1" fill-rule="nonzero"/><path fill="#ec4888" d="M 826.039062 700.863281 L 829.15625 695.230469 L 847.800781 695.230469 C 841.5 703.65625 834.628906 711.40625 827.3125 718.507812 L 814.964844 718.507812 C 818.851562 712.890625 822.609375 707.0625 826.039062 700.863281 Z M 826.039062 700.863281 " fill-opacity="1" fill-rule="nonzero"/><path fill="#ec4888" d="M 842.488281 664.28125 L 843.921875 660.316406 L 868.824219 660.316406 C 864.855469 668.445312 860.46875 676.207031 855.691406 683.59375 L 834.550781 683.59375 C 837.378906 677.359375 840.074219 670.9375 842.488281 664.28125 Z M 842.488281 664.28125 " fill-opacity="1" fill-rule="nonzero"/><path fill="#ec4888" d="M 799.476562 738.058594 L 806.800781 730.148438 L 814.175781 730.148438 C 807.316406 735.652344 800.136719 740.605469 792.679688 744.9375 C 794.984375 742.742188 797.253906 740.457031 799.476562 738.058594 Z M 799.476562 738.058594 " fill-opacity="1" fill-rule="nonzero"/><path fill="#ec4888" d="M 861.558594 555.75 L 861.5625 555.566406 L 893.710938 555.566406 C 893.527344 563.445312 892.949219 571.195312 892.089844 578.84375 L 860.449219 578.84375 C 861.054688 571.148438 861.441406 563.386719 861.558594 555.75 Z M 861.558594 555.75 " fill-opacity="1" fill-rule="nonzero"/><path fill="#ec4888" d="M 853.058594 627.96875 L 853.640625 625.398438 L 882.636719 625.398438 C 880.207031 633.394531 877.410156 641.164062 874.253906 648.675781 L 847.574219 648.675781 C 849.601562 641.894531 851.472656 634.972656 853.058594 627.96875 Z M 853.058594 627.96875 " fill-opacity="1" fill-rule="nonzero"/><path fill="#ec4888" d="M 859.195312 591.816406 L 859.351562 590.480469 L 890.644531 590.480469 C 889.398438 598.410156 887.765625 606.164062 885.832031 613.757812 L 855.9375 613.757812 C 857.222656 606.628906 858.335938 599.277344 859.195312 591.816406 Z M 859.195312 591.816406 " fill-opacity="1" fill-rule="nonzero"/><path fill="#ec4888" d="M 893.773438 470.707031 C 891.707031 463.914062 889.308594 457.28125 886.742188 450.816406 L 908.867188 450.816406 C 912.761719 458.328125 916.222656 466.09375 919.222656 474.09375 L 894.804688 474.09375 C 894.804688 474.09375 893.773438 470.707031 893.773438 470.707031 Z M 893.773438 470.707031 " fill-opacity="1" fill-rule="nonzero"/><path fill="#ec4888" d="M 902.144531 507.195312 C 901.035156 500.167969 899.53125 492.957031 897.773438 485.730469 L 923.320312 485.730469 C 925.675781 493.320312 927.613281 501.085938 929.128906 509.007812 L 902.429688 509.007812 C 902.429688 509.007812 902.144531 507.195312 902.144531 507.195312 Z M 902.144531 507.195312 " fill-opacity="1" fill-rule="nonzero"/><path fill="#ec4888" d="M 879.285156 434.074219 C 876.238281 427.832031 872.835938 421.792969 869.285156 415.898438 L 886.316406 415.898438 C 892.167969 423.277344 897.507812 431.054688 902.367188 439.175781 L 881.773438 439.175781 C 881.773438 439.175781 879.285156 434.074219 879.285156 434.074219 Z M 879.285156 434.074219 " fill-opacity="1" fill-rule="nonzero"/><path fill="#ec4888" d="M 824.984375 363.097656 C 828.417969 365.097656 831.804688 367.171875 835.121094 369.34375 L 832.765625 369.34375 C 832.765625 369.34375 824.984375 363.097656 824.984375 363.097656 Z M 824.984375 363.097656 " fill-opacity="1" fill-rule="nonzero"/><path fill="#ec4888" d="M 857.121094 397.289062 C 852.894531 391.632812 848.222656 386.238281 843.375 380.980469 L 851.347656 380.980469 C 860.28125 388.070312 868.605469 395.863281 876.300781 404.257812 L 862.335938 404.257812 C 862.335938 404.257812 857.121094 397.289062 857.121094 397.289062 Z M 857.121094 397.289062 " fill-opacity="1" fill-rule="nonzero"/><path fill="#ec4888" d="M 905.347656 543.652344 C 905.175781 536.203125 904.636719 528.644531 903.773438 520.648438 L 930.96875 520.648438 C 932.015625 528.292969 932.707031 536.046875 932.933594 543.925781 L 905.355469 543.925781 Z M 905.347656 543.652344 " fill-opacity="1" fill-rule="nonzero"/><path fill="#ec4888" d="M 905.347656 555.839844 L 905.355469 555.566406 L 932.933594 555.566406 C 932.707031 563.441406 932.015625 571.195312 930.96875 578.84375 L 903.773438 578.84375 C 904.640625 570.84375 905.175781 563.285156 905.347656 555.839844 Z M 905.347656 555.839844 " fill-opacity="1" fill-rule="nonzero"/><path fill="#ec4888" d="M 832.773438 730.148438 L 835.121094 730.148438 C 831.8125 732.3125 828.4375 734.382812 825.011719 736.378906 Z M 832.773438 730.148438 " fill-opacity="1" fill-rule="nonzero"/><path fill="#ec4888" d="M 857.121094 702.207031 L 862.339844 695.230469 L 876.300781 695.230469 C 868.605469 703.628906 860.28125 711.417969 851.347656 718.507812 L 843.375 718.507812 C 848.222656 713.253906 852.894531 707.859375 857.121094 702.207031 Z M 857.121094 702.207031 " fill-opacity="1" fill-rule="nonzero"/><path fill="#ec4888" d="M 902.144531 592.296875 L 902.429688 590.480469 L 929.128906 590.480469 C 927.613281 598.40625 925.675781 606.171875 923.320312 613.757812 L 897.773438 613.757812 C 899.53125 606.53125 901.035156 599.320312 902.144531 592.296875 Z M 902.144531 592.296875 " fill-opacity="1" fill-rule="nonzero"/><path fill="#ec4888" d="M 879.285156 665.417969 L 881.773438 660.316406 L 902.367188 660.316406 C 897.507812 668.433594 892.167969 676.214844 886.316406 683.59375 L 869.285156 683.59375 C 872.839844 677.691406 876.242188 671.65625 879.285156 665.417969 Z M 879.285156 665.417969 " fill-opacity="1" fill-rule="nonzero"/><path fill="#ec4888" d="M 893.773438 628.785156 L 894.804688 625.398438 L 919.222656 625.398438 C 916.222656 633.398438 912.761719 641.160156 908.867188 648.675781 L 886.742188 648.675781 C 889.308594 642.203125 891.707031 635.570312 893.773438 628.785156 Z M 893.773438 628.785156 " fill-opacity="1" fill-rule="nonzero"/><path fill="#ec4888" d="M 685.050781 404.257812 L 711.9375 404.257812 L 711.9375 380.980469 L 690.066406 380.980469 C 688.273438 388.078125 686.597656 395.851562 685.050781 404.257812 Z M 685.050781 404.257812 " fill-opacity="1" fill-rule="nonzero"/><path fill="#ec4888" d="M 679.859375 439.175781 L 711.9375 439.175781 L 711.9375 415.898438 L 683.085938 415.898438 C 681.910156 423.28125 680.835938 431.050781 679.859375 439.175781 Z M 679.859375 439.175781 " fill-opacity="1" fill-rule="nonzero"/><path fill="#ec4888" d="M 675.683594 485.730469 C 675.210938 493.320312 674.820312 501.085938 674.519531 509.007812 L 711.9375 509.007812 L 711.9375 485.730469 Z M 675.683594 485.730469 " fill-opacity="1" fill-rule="nonzero"/><path fill="#ec4888" d="M 678.542969 450.816406 C 677.765625 458.328125 677.078125 466.097656 676.476562 474.09375 L 711.9375 474.09375 L 711.9375 450.816406 Z M 678.542969 450.816406 " fill-opacity="1" fill-rule="nonzero"/><path fill="#ec4888" d="M 711.9375 648.675781 L 711.9375 625.398438 L 676.476562 625.398438 C 677.078125 633.394531 677.765625 641.164062 678.542969 648.675781 Z M 711.9375 648.675781 " fill-opacity="1" fill-rule="nonzero"/><path fill="#ec4888" d="M 673.773438 555.566406 C 673.816406 563.441406 673.945312 571.199219 674.15625 578.84375 L 711.9375 578.84375 L 711.9375 555.566406 Z M 673.773438 555.566406 " fill-opacity="1" fill-rule="nonzero"/><path fill="#ec4888" d="M 674.519531 590.480469 C 674.820312 598.40625 675.210938 606.167969 675.679688 613.757812 L 711.9375 613.757812 L 711.9375 590.480469 Z M 674.519531 590.480469 " fill-opacity="1" fill-rule="nonzero"/><path fill="#ec4888" d="M 674.15625 520.648438 C 673.945312 528.289062 673.816406 536.050781 673.773438 543.925781 L 711.9375 543.925781 L 711.9375 520.648438 Z M 674.15625 520.648438 " fill-opacity="1" fill-rule="nonzero"/><g clip-path="url(#b73ebc9547)"><path fill="#ec4888" d="M 711.9375 730.148438 L 693.328125 730.148438 C 696.773438 741.386719 700.542969 750.367188 704.578125 756.335938 L 711.9375 756.335938 Z M 711.9375 730.148438 " fill-opacity="1" fill-rule="nonzero"/></g><path fill="#ec4888" d="M 711.9375 718.507812 L 711.9375 695.230469 L 685.050781 695.230469 C 686.597656 703.640625 688.273438 711.414062 690.066406 718.507812 Z M 711.9375 718.507812 " fill-opacity="1" fill-rule="nonzero"/><path fill="#ec4888" d="M 711.9375 660.316406 L 679.859375 660.316406 C 680.835938 668.441406 681.910156 676.207031 683.085938 683.59375 L 711.9375 683.59375 Z M 711.9375 660.316406 " fill-opacity="1" fill-rule="nonzero"/><path fill="#ec4888" d="M 664.871094 473.21875 C 665.445312 465.53125 666.113281 458.0625 666.851562 450.816406 L 639.308594 450.816406 C 637.761719 458.328125 636.386719 466.09375 635.191406 474.09375 L 664.804688 474.09375 Z M 664.871094 473.21875 " fill-opacity="1" fill-rule="nonzero"/><path fill="#ec4888" d="M 662.128906 543.859375 C 662.175781 536.003906 662.304688 528.273438 662.515625 520.648438 L 630.519531 520.648438 C 630.109375 528.289062 629.855469 536.050781 629.773438 543.925781 L 662.128906 543.925781 Z M 662.128906 543.859375 " fill-opacity="1" fill-rule="nonzero"/><path fill="#ec4888" d="M 662.886719 508.566406 C 663.183594 500.792969 663.574219 493.1875 664.027344 485.730469 L 633.605469 485.730469 C 632.667969 493.320312 631.894531 501.085938 631.292969 509.007812 L 662.871094 509.007812 Z M 662.886719 508.566406 " fill-opacity="1" fill-rule="nonzero"/><path fill="#ec4888" d="M 668.300781 437.796875 C 669.203125 430.300781 670.21875 422.96875 671.316406 415.898438 L 648.316406 415.898438 C 645.984375 423.28125 643.84375 431.050781 641.90625 439.175781 L 668.136719 439.175781 Z M 668.300781 437.796875 " fill-opacity="1" fill-rule="nonzero"/><path fill="#ec4888" d="M 673.605469 402.15625 C 674.988281 394.609375 676.515625 387.566406 678.121094 380.980469 L 662.191406 380.980469 C 658.628906 388.078125 655.296875 395.851562 652.226562 404.257812 L 673.21875 404.257812 Z M 673.605469 402.15625 " fill-opacity="1" fill-rule="nonzero"/><path fill="#ec4888" d="M 668.300781 661.699219 L 668.136719 660.316406 L 641.90625 660.316406 C 643.84375 668.441406 645.984375 676.207031 648.316406 683.59375 L 671.316406 683.59375 C 670.222656 676.523438 669.203125 669.1875 668.300781 661.699219 Z M 668.300781 661.699219 " fill-opacity="1" fill-rule="nonzero"/><path fill="#ec4888" d="M 673.605469 697.335938 L 673.214844 695.230469 L 652.226562 695.230469 C 655.296875 703.640625 658.628906 711.414062 662.191406 718.507812 L 678.121094 718.507812 C 676.515625 711.921875 674.988281 704.878906 673.605469 697.335938 Z M 673.605469 697.335938 " fill-opacity="1" fill-rule="nonzero"/><path fill="#ec4888" d="M 662.128906 555.632812 L 662.128906 555.566406 L 629.773438 555.566406 C 629.855469 563.4375 630.109375 571.203125 630.519531 578.84375 L 662.515625 578.84375 C 662.304688 571.214844 662.175781 563.484375 662.128906 555.632812 Z M 662.128906 555.632812 " fill-opacity="1" fill-rule="nonzero"/><g clip-path="url(#c96d6385a1)"><path fill="#ec4888" d="M 682.203125 733.558594 L 681.15625 730.148438 L 668.664062 730.148438 C 675.523438 741.394531 683.023438 750.371094 691.054688 756.335938 L 691.136719 756.335938 C 687.988281 750.285156 685.035156 742.804688 682.203125 733.558594 Z M 682.203125 733.558594 " fill-opacity="1" fill-rule="nonzero"/></g><path fill="#ec4888" d="M 664.871094 626.273438 L 664.804688 625.398438 L 635.191406 625.398438 C 636.386719 633.394531 637.761719 641.160156 639.308594 648.675781 L 666.851562 648.675781 C 666.113281 641.425781 665.445312 633.960938 664.871094 626.273438 Z M 664.871094 626.273438 " fill-opacity="1" fill-rule="nonzero"/><path fill="#ec4888" d="M 662.886719 590.925781 L 662.871094 590.480469 L 631.292969 590.480469 C 631.894531 598.40625 632.667969 606.167969 633.605469 613.757812 L 664.027344 613.757812 C 663.574219 606.304688 663.183594 598.695312 662.886719 590.925781 Z M 662.886719 590.925781 " fill-opacity="1" fill-rule="nonzero"/><path fill="#ec4888" d="M 623.679688 472.378906 C 624.773438 465.054688 626.058594 457.832031 627.460938 450.816406 L 600.054688 450.816406 C 597.703125 458.328125 595.613281 466.09375 593.804688 474.09375 L 623.421875 474.09375 Z M 623.679688 472.378906 " fill-opacity="1" fill-rule="nonzero"/><path fill="#ec4888" d="M 619.6875 508.128906 C 620.261719 500.609375 621.027344 493.097656 621.90625 485.730469 L 591.378906 485.730469 C 589.957031 493.320312 588.789062 501.085938 587.878906 509.007812 L 619.621094 509.007812 Z M 619.6875 508.128906 " fill-opacity="1" fill-rule="nonzero"/><path fill="#ec4888" d="M 618.132812 543.800781 C 618.214844 536.003906 618.46875 528.222656 618.871094 520.648438 L 586.722656 520.648438 C 586.101562 528.289062 585.714844 536.050781 585.589844 543.925781 L 618.128906 543.925781 Z M 618.132812 543.800781 " fill-opacity="1" fill-rule="nonzero"/><path fill="#ec4888" d="M 630.582031 436.476562 C 632.273438 429.390625 634.171875 422.523438 636.179688 415.898438 L 613.707031 415.898438 C 610.164062 423.28125 606.910156 431.046875 603.96875 439.175781 L 629.941406 439.175781 Z M 630.582031 436.476562 " fill-opacity="1" fill-rule="nonzero"/><path fill="#ec4888" d="M 658.726562 363.289062 C 662.09375 357.761719 665.609375 352.898438 669.214844 348.484375 C 660.519531 354.003906 652.273438 361.027344 644.574219 369.34375 L 655.039062 369.34375 Z M 658.726562 363.289062 " fill-opacity="1" fill-rule="nonzero"/><path fill="#ec4888" d="M 641.296875 400.269531 C 643.785156 393.449219 646.523438 387.070312 649.367188 380.980469 L 634.757812 380.980469 C 629.359375 388.074219 624.308594 395.851562 619.652344 404.257812 L 639.839844 404.257812 Z M 641.296875 400.269531 " fill-opacity="1" fill-rule="nonzero"/><path fill="#ec4888" d="M 641.296875 699.222656 L 639.839844 695.230469 L 619.652344 695.230469 C 624.308594 703.636719 629.359375 711.414062 634.757812 718.507812 L 649.367188 718.507812 C 646.523438 712.417969 643.785156 706.035156 641.296875 699.222656 Z M 641.296875 699.222656 " fill-opacity="1" fill-rule="nonzero"/><path fill="#ec4888" d="M 658.726562 736.203125 L 655.035156 730.148438 L 644.574219 730.148438 C 652.269531 738.460938 660.515625 745.484375 669.210938 751.003906 C 665.609375 746.589844 662.09375 741.726562 658.726562 736.203125 Z M 658.726562 736.203125 " fill-opacity="1" fill-rule="nonzero"/><path fill="#ec4888" d="M 630.582031 663.015625 L 629.941406 660.316406 L 603.96875 660.316406 C 606.910156 668.441406 610.164062 676.207031 613.707031 683.59375 L 636.183594 683.59375 C 634.175781 676.980469 632.277344 670.117188 630.582031 663.015625 Z M 630.582031 663.015625 " fill-opacity="1" fill-rule="nonzero"/><path fill="#ec4888" d="M 623.679688 627.117188 L 623.421875 625.398438 L 593.804688 625.398438 C 595.613281 633.398438 597.703125 641.160156 600.054688 648.675781 L 627.460938 648.675781 C 626.058594 641.65625 624.773438 634.433594 623.679688 627.117188 Z M 623.679688 627.117188 " fill-opacity="1" fill-rule="nonzero"/><path fill="#ec4888" d="M 618.132812 555.691406 L 618.128906 555.566406 L 585.589844 555.566406 C 585.714844 563.4375 586.101562 571.203125 586.722656 578.84375 L 618.871094 578.84375 C 618.46875 571.265625 618.214844 563.484375 618.132812 555.691406 Z M 618.132812 555.691406 " fill-opacity="1" fill-rule="nonzero"/><path fill="#ec4888" d="M 619.6875 591.367188 L 619.621094 590.480469 L 587.878906 590.480469 C 588.789062 598.40625 589.957031 606.171875 591.378906 613.757812 L 621.90625 613.757812 C 621.027344 606.402344 620.261719 598.886719 619.6875 591.367188 Z M 619.6875 591.367188 " fill-opacity="1" fill-rule="nonzero"/><path fill="#ec4888" d="M 593.023438 435.210938 C 595.441406 428.546875 598.136719 422.125 600.960938 415.898438 L 579.820312 415.898438 C 575.042969 423.28125 570.65625 431.046875 566.6875 439.175781 L 591.589844 439.175781 Z M 593.023438 435.210938 " fill-opacity="1" fill-rule="nonzero"/><path fill="#ec4888" d="M 573.953125 543.742188 C 574.070312 536.105469 574.457031 528.34375 575.0625 520.648438 L 543.421875 520.648438 C 542.566406 528.292969 541.984375 536.046875 541.800781 543.925781 L 573.949219 543.925781 Z M 573.953125 543.742188 " fill-opacity="1" fill-rule="nonzero"/><path fill="#ec4888" d="M 582.453125 471.523438 C 584.039062 464.519531 585.910156 457.59375 587.9375 450.816406 L 561.257812 450.816406 C 558.101562 458.324219 555.304688 466.097656 552.875 474.09375 L 581.871094 474.09375 Z M 582.453125 471.523438 " fill-opacity="1" fill-rule="nonzero"/><path fill="#ec4888" d="M 636.035156 361.4375 C 638.257812 359.035156 640.53125 356.746094 642.835938 354.550781 C 635.375 358.886719 628.195312 363.835938 621.335938 369.34375 L 628.71875 369.34375 Z M 636.035156 361.4375 " fill-opacity="1" fill-rule="nonzero"/><path fill="#ec4888" d="M 609.472656 398.628906 C 612.902344 392.425781 616.660156 386.601562 620.546875 380.980469 L 608.199219 380.980469 C 600.882812 388.082031 594.011719 395.832031 587.710938 404.257812 L 606.359375 404.257812 Z M 609.472656 398.628906 " fill-opacity="1" fill-rule="nonzero"/><path fill="#ec4888" d="M 576.316406 507.675781 C 577.175781 500.214844 578.289062 492.863281 579.574219 485.730469 L 549.679688 485.730469 C 547.746094 493.324219 546.113281 501.078125 544.867188 509.007812 L 576.164062 509.007812 Z M 576.316406 507.675781 " fill-opacity="1" fill-rule="nonzero"/><path fill="#ec4888" d="M 609.472656 700.863281 L 606.355469 695.230469 L 587.710938 695.230469 C 594.011719 703.65625 600.882812 711.40625 608.199219 718.507812 L 620.546875 718.507812 C 616.660156 712.890625 612.902344 707.0625 609.472656 700.863281 Z M 609.472656 700.863281 " fill-opacity="1" fill-rule="nonzero"/><path fill="#ec4888" d="M 593.023438 664.28125 L 591.589844 660.316406 L 566.6875 660.316406 C 570.65625 668.445312 575.042969 676.207031 579.820312 683.59375 L 600.960938 683.59375 C 598.132812 677.359375 595.441406 670.9375 593.023438 664.28125 Z M 593.023438 664.28125 " fill-opacity="1" fill-rule="nonzero"/><path fill="#ec4888" d="M 636.035156 738.058594 L 628.710938 730.148438 L 621.335938 730.148438 C 628.195312 735.652344 635.375 740.605469 642.832031 744.9375 C 640.527344 742.742188 638.257812 740.457031 636.035156 738.058594 Z M 636.035156 738.058594 " fill-opacity="1" fill-rule="nonzero"/><path fill="#ec4888" d="M 573.953125 555.75 L 573.949219 555.566406 L 541.800781 555.566406 C 541.984375 563.445312 542.566406 571.195312 543.421875 578.84375 L 575.0625 578.84375 C 574.457031 571.148438 574.070312 563.386719 573.953125 555.75 Z M 573.953125 555.75 " fill-opacity="1" fill-rule="nonzero"/><path fill="#ec4888" d="M 582.453125 627.96875 L 581.871094 625.398438 L 552.875 625.398438 C 555.304688 633.394531 558.101562 641.164062 561.257812 648.675781 L 587.9375 648.675781 C 585.910156 641.894531 584.039062 634.972656 582.453125 627.96875 Z M 582.453125 627.96875 " fill-opacity="1" fill-rule="nonzero"/><path fill="#ec4888" d="M 576.316406 591.816406 L 576.160156 590.480469 L 544.867188 590.480469 C 546.113281 598.410156 547.746094 606.164062 549.679688 613.757812 L 579.574219 613.757812 C 578.292969 606.628906 577.175781 599.277344 576.316406 591.816406 Z M 576.316406 591.816406 " fill-opacity="1" fill-rule="nonzero"/><path fill="#ec4888" d="M 541.742188 470.707031 C 543.804688 463.914062 546.203125 457.28125 548.769531 450.816406 L 526.644531 450.816406 C 522.75 458.328125 519.292969 466.09375 516.289062 474.09375 L 540.710938 474.09375 Z M 541.742188 470.707031 " fill-opacity="1" fill-rule="nonzero"/><path fill="#ec4888" d="M 533.371094 507.195312 C 534.476562 500.167969 535.980469 492.957031 537.738281 485.730469 L 512.191406 485.730469 C 509.835938 493.320312 507.898438 501.085938 506.386719 509.007812 L 533.082031 509.007812 Z M 533.371094 507.195312 " fill-opacity="1" fill-rule="nonzero"/><path fill="#ec4888" d="M 556.226562 434.074219 C 559.273438 427.832031 562.675781 421.792969 566.226562 415.898438 L 549.195312 415.898438 C 543.347656 423.277344 538.003906 431.054688 533.144531 439.175781 L 553.738281 439.175781 Z M 556.226562 434.074219 " fill-opacity="1" fill-rule="nonzero"/><path fill="#ec4888" d="M 610.527344 363.097656 C 607.09375 365.097656 603.707031 367.171875 600.390625 369.34375 L 602.75 369.34375 Z M 610.527344 363.097656 " fill-opacity="1" fill-rule="nonzero"/><path fill="#ec4888" d="M 578.390625 397.289062 C 582.617188 391.632812 587.289062 386.238281 592.136719 380.980469 L 588.25 380.980469 L 588.253906 380.980469 L 584.164062 380.980469 C 575.230469 388.070312 566.90625 395.863281 559.210938 404.257812 L 573.179688 404.257812 Z M 578.390625 397.289062 " fill-opacity="1" fill-rule="nonzero"/><path fill="#ec4888" d="M 530.164062 543.652344 C 530.335938 536.203125 530.875 528.644531 531.738281 520.648438 L 504.546875 520.648438 C 503.496094 528.292969 502.804688 536.046875 502.578125 543.925781 L 530.160156 543.925781 Z M 530.164062 543.652344 " fill-opacity="1" fill-rule="nonzero"/><path fill="#ec4888" d="M 530.164062 555.839844 L 530.15625 555.566406 L 502.578125 555.566406 C 502.804688 563.441406 503.496094 571.195312 504.546875 578.84375 L 531.738281 578.84375 C 530.875 570.84375 530.335938 563.285156 530.164062 555.839844 Z M 530.164062 555.839844 " fill-opacity="1" fill-rule="nonzero"/><path fill="#ec4888" d="M 602.738281 730.148438 L 600.390625 730.148438 C 603.703125 732.3125 607.074219 734.382812 610.5 736.378906 Z M 602.738281 730.148438 " fill-opacity="1" fill-rule="nonzero"/><path fill="#ec4888" d="M 578.390625 702.207031 L 573.171875 695.230469 L 559.210938 695.230469 C 566.90625 703.628906 575.230469 711.417969 584.164062 718.507812 L 592.136719 718.507812 C 587.289062 713.253906 582.617188 707.859375 578.390625 702.207031 Z M 578.390625 702.207031 " fill-opacity="1" fill-rule="nonzero"/><path fill="#ec4888" d="M 533.371094 592.296875 L 533.082031 590.480469 L 506.386719 590.480469 C 507.898438 598.40625 509.835938 606.171875 512.191406 613.757812 L 537.738281 613.757812 C 535.980469 606.53125 534.476562 599.320312 533.371094 592.296875 Z M 533.371094 592.296875 " fill-opacity="1" fill-rule="nonzero"/><path fill="#ec4888" d="M 556.226562 665.417969 L 553.738281 660.316406 L 533.144531 660.316406 C 538.003906 668.433594 543.347656 676.214844 549.195312 683.59375 L 566.230469 683.59375 C 562.675781 677.691406 559.269531 671.65625 556.226562 665.417969 Z M 556.226562 665.417969 " fill-opacity="1" fill-rule="nonzero"/><path fill="#ec4888" d="M 541.742188 628.785156 L 540.710938 625.398438 L 516.289062 625.398438 C 519.292969 633.398438 522.75 641.160156 526.644531 648.675781 L 548.769531 648.675781 C 546.203125 642.203125 543.804688 635.570312 541.742188 628.785156 Z M 541.742188 628.785156 " fill-opacity="1" fill-rule="nonzero"/><path fill="#ec4888" d="M 747.933594 346.101562 C 747.449219 346.566406 746.953125 347.007812 746.453125 347.449219 C 748.832031 352.660156 751.109375 358.75 753.308594 365.933594 L 754.355469 369.34375 L 766.847656 369.34375 C 760.996094 359.742188 754.652344 351.933594 747.933594 346.101562 Z M 747.933594 346.101562 " fill-opacity="1" fill-rule="nonzero"/><path fill="#ec4888" d="M 723.574219 357.851562 L 723.574219 369.34375 L 742.183594 369.34375 C 740.414062 363.570312 738.554688 358.417969 736.621094 353.9375 C 732.574219 355.890625 728.195312 357.230469 723.574219 357.851562 Z M 723.574219 357.851562 " fill-opacity="1" fill-rule="nonzero"/><path fill="#ec4888" d="M 698.890625 353.933594 C 696.957031 358.414062 695.097656 363.566406 693.328125 369.34375 L 711.9375 369.34375 L 711.9375 357.847656 C 707.320312 357.226562 702.9375 355.886719 698.890625 353.933594 Z M 698.890625 353.933594 " fill-opacity="1" fill-rule="nonzero"/><path fill="#ec4888" d="M 687.585938 346.097656 C 680.867188 351.925781 674.519531 359.742188 668.664062 369.34375 L 681.160156 369.34375 L 682.203125 365.933594 C 684.402344 358.75 686.679688 352.652344 689.066406 347.441406 C 688.5625 347.003906 688.066406 346.558594 687.585938 346.097656 Z M 687.585938 346.097656 " fill-opacity="1" fill-rule="nonzero"/><path fill="#ec4888" d="M 717.761719 285.539062 C 701.691406 285.539062 688.664062 298.566406 688.664062 314.636719 C 688.664062 330.707031 701.691406 343.734375 717.761719 343.734375 C 733.832031 343.734375 746.859375 330.707031 746.859375 314.636719 C 746.859375 298.566406 733.832031 285.539062 717.761719 285.539062 Z M 717.761719 337.914062 C 704.90625 337.914062 694.484375 327.492188 694.484375 314.636719 C 694.484375 301.78125 704.90625 291.359375 717.761719 291.359375 C 730.621094 291.359375 741.039062 301.78125 741.039062 314.636719 C 741.039062 327.492188 730.621094 337.914062 717.761719 337.914062 Z M 717.761719 337.914062 " fill-opacity="1" fill-rule="nonzero"/><g clip-path="url(#d7a26f5810)"><path fill="#ec4888" d="M 717.761719 270.992188 C 718.746094 270.992188 719.707031 271.074219 720.671875 271.140625 L 720.671875 14.9375 L 714.851562 14.9375 L 714.851562 271.140625 C 715.820312 271.074219 716.78125 270.992188 717.761719 270.992188 Z M 717.761719 270.992188 " fill-opacity="1" fill-rule="nonzero"/></g></svg>