<svg xmlns="http://www.w3.org/2000/svg" xmlns:xlink="http://www.w3.org/1999/xlink" width="1920" zoomAndPan="magnify" viewBox="0 0 1440 809.999993" height="1080" preserveAspectRatio="xMidYMid meet" version="1.0"><path fill="#e5ccfd" d="M 518.796875 185.898438 C 529.871094 183.082031 594.371094 113.003906 739.230469 118.542969 C 750.808594 118.984375 765.226562 122.007812 767.351562 120.925781 C 768.441406 119.878906 768.007812 119.726562 765.25 107.976562 C 759.992188 85.589844 776.820312 57.921875 808.609375 54.988281 C 833.425781 52.695312 856.824219 64.046875 867.300781 89.867188 C 871.117188 99.28125 871.417969 104.136719 873.902344 113.988281 C 877.992188 114.816406 888.902344 102.816406 922.53125 95.449219 C 936.738281 92.339844 948.621094 91.949219 962.339844 96.132812 C 974.226562 99.757812 982.855469 108.03125 981.21875 120.671875 C 977.660156 148.242188 944.074219 175.472656 924.148438 191.726562 C 924.597656 194.355469 926.609375 195.378906 928.113281 196.75 C 1041.660156 300.132812 1063.4375 473.226562 954.984375 610.996094 C 954.929688 615.367188 968.863281 618.910156 966.71875 640.847656 C 962.71875 681.742188 910.304688 730.464844 861.734375 746.816406 C 855.582031 748.886719 850.378906 747.597656 845.765625 743.144531 C 838.761719 736.375 827.84375 727.058594 817.050781 713.769531 C 812.523438 708.199219 812.550781 708.273438 808.234375 709.660156 C 597.164062 777.441406 388.035156 630.925781 397.582031 414.949219 C 398.3125 398.449219 401.910156 400.453125 408.054688 396.828125 C 410.523438 376.410156 411.046875 363.65625 418.851562 337.007812 C 421.480469 328.035156 420.832031 330.523438 420.832031 327.363281 C 418.101562 324.554688 378.441406 321.859375 359.402344 298.863281 C 342.34375 278.257812 334.640625 250.550781 342.1875 224.886719 C 350.851562 195.414062 402.121094 187.703125 431.554688 205.929688 C 433.078125 206.871094 434.296875 208.484375 436.679688 208.351562 C 440.039062 196.230469 439.402344 132.21875 483.535156 132.566406 C 507.035156 132.75 513.75 163.40625 518.796875 185.894531 Z M 933.796875 656.277344 C 926.886719 663.703125 930.195312 661.574219 906.367188 687.910156 C 872.015625 725.882812 872.332031 724.800781 872.804688 726.570312 C 892.480469 718.589844 930.480469 672.152344 933.835938 656.257812 C 933.796875 655.78125 934.164062 655.765625 934.128906 656.140625 C 934.03125 657.183594 934.792969 655.933594 933.796875 656.277344 Z M 920.96875 164.074219 C 922.441406 164.332031 923.445312 163.457031 924.421875 162.59375 C 935.824219 152.527344 952.976562 134.152344 956.636719 118.800781 C 958.101562 112.660156 956.519531 107.097656 953.730469 107.011719 C 949.117188 111.144531 948.257812 116.210938 943.175781 125.21875 C 932.40625 144.304688 930.414062 147.0625 921.085938 164.195312 C 920.9375 164.554688 920.976562 164.59375 920.96875 164.074219 Z M 894.78125 185.050781 C 896.054688 183.175781 897.175781 181.707031 898.113281 180.125 C 943.457031 103.769531 942.941406 105.925781 938.007812 106.445312 C 919.90625 133.042969 937.023438 105.792969 878.816406 191.726562 C 875.996094 195.890625 877.582031 195.601562 876.710938 196.226562 C 877.074219 195.921875 876.6875 196.1875 894.78125 185.050781 Z M 475.203125 156.660156 C 476.992188 154.839844 479.085938 153.410156 481.539062 152.480469 C 479.878906 139.078125 466.890625 157.324219 465.023438 161.59375 C 457.90625 177.867188 455.144531 196.648438 453.789062 214.28125 C 453.417969 219.105469 454.308594 232.839844 450.378906 236.507812 C 448.078125 238.65625 446.113281 235.425781 443.78125 236.097656 L 436.617188 310.023438 C 436.105469 315.46875 439.949219 314.445312 446.828125 314.378906 C 447.554688 314.371094 448.273438 313.925781 449.203125 313.613281 C 450.121094 310.59375 450.464844 307.476562 450.699219 304.355469 C 452.027344 286.621094 452.859375 268.878906 455.347656 251.253906 C 457.222656 237.996094 459.667969 224.8125 462.160156 211.65625 C 464.777344 197.808594 463.351562 168.707031 475.203125 156.660156 Z M 910.738281 608.089844 C 1019.574219 476.839844 996.414062 307.191406 902.359375 212.699219 C 896.46875 206.777344 900.714844 208.320312 877.519531 218.925781 C 857.035156 228.292969 846.90625 230.65625 834.167969 232.820312 C 830.3125 235.46875 830.578125 235.621094 827.730469 235.765625 C 818.703125 236.226562 814.972656 231.792969 811.5625 224.480469 C 771.011719 137.460938 780.957031 140.738281 769.46875 138.214844 C 629.824219 107.527344 523.464844 203.6875 521.804688 209.945312 C 523.257812 245.339844 522.796875 286.675781 507.8125 318.773438 C 501.339844 332.632812 482.925781 328.910156 470.328125 328.671875 C 437.996094 328.070312 441.230469 326.332031 438.359375 334.253906 C 431.613281 352.878906 427.09375 372.089844 423.472656 391.53125 C 423.136719 393.316406 422.703125 395.15625 423.605469 397.433594 C 425.523438 398.894531 428.671875 399.511719 430.394531 403.195312 C 432.191406 408.644531 427.71875 436.355469 435.433594 477.789062 C 453.847656 576.691406 519.507812 660.230469 618.796875 694.816406 C 710.222656 726.664062 795.953125 692.671875 798.503906 688.375 C 794.09375 679.082031 792.488281 676.171875 790.015625 670.757812 C 758.167969 601.007812 847.53125 575.386719 863.742188 622.800781 C 865.9375 629.21875 864.421875 626.46875 866.773438 629.324219 C 886.039062 617.832031 883.28125 617.429688 910.738281 608.089844 Z M 475.957031 313.683594 C 484.140625 184.652344 497.386719 187.015625 488.964844 166.265625 C 484.800781 156.011719 485.5625 157.667969 483.621094 156.664062 C 480.902344 168.679688 483.304688 156.609375 472.878906 213.960938 C 468.359375 238.820312 466.144531 248.707031 462.980469 285.128906 C 460.484375 313.921875 461.027344 313.007812 462.144531 313.972656 C 468.832031 315.054688 470.101562 315.039062 475.957031 313.683594 Z M 857.046875 725.753906 C 867.367188 714.792969 926.304688 650.664062 933.570312 637.480469 C 931.609375 632.589844 924.648438 628.234375 919.652344 629.90625 C 907.425781 643.738281 860.308594 711.539062 853.605469 721.105469 C 853.011719 721.953125 853.683594 724.566406 857.046875 725.753906 Z M 833.558594 214.441406 C 841.414062 212.894531 848.929688 210.054688 855.890625 206.132812 C 871.589844 183.996094 899.730469 138.65625 920.183594 113.617188 C 920.664062 113.027344 920.941406 112.273438 921.335938 111.558594 C 917.675781 110.984375 917.476562 111.042969 909.527344 114.828125 C 898.105469 132.011719 875.9375 155.855469 839.175781 204.9375 C 837.152344 207.644531 834.980469 210.328125 833.558594 214.441406 Z M 865.128906 130.296875 C 859.925781 134.945312 837.65625 163.097656 828.601562 175.515625 C 825.445312 179.839844 825.972656 178.96875 830.574219 195.671875 C 830.621094 195.851562 831 195.9375 831.222656 196.0625 C 832.441406 196.058594 832.984375 195.121094 833.566406 194.304688 C 846.167969 176.597656 861.890625 157.746094 887.292969 126.09375 C 887.875 125.367188 888.824219 124.65625 888.054688 123.144531 C 878.453125 124.808594 884.179688 124.324219 876.234375 125.390625 C 874 128.652344 875.1875 132.574219 872.753906 135.425781 C 872.054688 135.375 871.308594 135.324219 870.832031 135.289062 C 868.589844 133.859375 867.765625 131.292969 865.128906 130.296875 Z M 404.9375 304.847656 C 406.886719 294.144531 408.484375 280.585938 409.699219 269.773438 C 414 231.605469 417.554688 218.851562 417.195312 213.066406 C 415.183594 211.578125 416.234375 211.898438 410.734375 209.582031 C 409.765625 209.171875 408.765625 208.90625 407.394531 209.914062 C 402.972656 223.691406 397.617188 286.410156 396.609375 300.84375 C 398.808594 302.898438 401.257812 304.195312 404.9375 304.847656 Z M 905.058594 630.246094 C 903.464844 629.289062 902.0625 630.375 900.570312 630.671875 C 894.34375 631.902344 889.828125 635.167969 885.984375 640.425781 C 872.988281 658.203125 848.332031 693.417969 841.421875 705.324219 C 843.625 709.621094 843.644531 709.605469 846.765625 711.328125 C 855.050781 702.207031 876.636719 666.019531 903.878906 632.980469 C 904.53125 632.1875 905.277344 631.433594 905.058594 630.246094 Z M 424.25 243.289062 C 416.050781 307.714844 415.53125 306.726562 417.410156 309.324219 C 421.355469 310.847656 423.40625 312.152344 425.257812 309.855469 C 434.609375 224.164062 434.007812 226.707031 433.402344 224.042969 C 425.160156 215.328125 426.914062 222.335938 424.25 243.289062 Z M 388.789062 206.609375 C 386.992188 214.847656 379.605469 269.371094 379.847656 284.984375 C 383.640625 290.160156 384.125 291.589844 386.113281 290.316406 C 389.457031 256.648438 391.0625 235.007812 396.546875 209.976562 C 397.566406 205.332031 393.40625 205.480469 388.789062 206.609375 Z M 856.6875 655.515625 C 852.191406 655.164062 853.296875 651.089844 850.199219 650.570312 C 841.933594 661.28125 834.273438 672.574219 826.878906 683.878906 C 829.878906 691.3125 830.199219 691.816406 833.910156 694.972656 C 834.351562 694.710938 834.949219 694.5625 835.210938 694.179688 C 868.070312 646.261719 865.378906 650.800781 864.136719 650.019531 C 860.957031 651.1875 859.78125 655.453125 856.6875 655.515625 Z M 847.09375 92.375 C 846.199219 92.910156 845.4375 93.179688 844.9375 93.699219 C 839.210938 99.6875 814.070312 131.519531 810.601562 137.140625 C 811.003906 140.171875 812.269531 142.980469 814.308594 145.890625 C 816.304688 144.234375 828.152344 127.710938 835.761719 118.53125 C 847.625 104.226562 848.722656 104.925781 851.445312 100.675781 C 850.523438 97.609375 849.382812 94.804688 847.09375 92.375 Z M 821.535156 671.886719 C 829.820312 659.183594 839.003906 647.414062 847.671875 635.613281 C 846.328125 631.628906 844.695312 628.585938 842.777344 626.476562 C 840.386719 626.378906 841.496094 625.5 817.679688 657.335938 C 817.0625 658.164062 816.636719 659.140625 816.210938 659.890625 C 817.949219 667.207031 818.007812 667.347656 821.535156 671.886719 Z M 822.53125 165.421875 C 845.863281 134.316406 855.949219 124.300781 859.203125 119.125 C 858.453125 116.285156 857.34375 114.273438 855.871094 113.085938 C 848.019531 119.980469 823.917969 150.417969 819.347656 159.21875 C 819.871094 161.203125 820.132812 163.328125 822.53125 165.421875 Z M 498.234375 217.859375 C 496.449219 219.117188 496.566406 221.097656 496.265625 222.765625 C 491.59375 248.507812 484.800781 320.28125 489.773438 303.269531 C 496.316406 280.882812 499.785156 251.792969 498.234375 217.859375 Z M 835.597656 77.871094 C 827.386719 84.710938 809.328125 106.460938 804.085938 115.84375 C 803.726562 117.675781 804.199219 119.460938 804.761719 121.207031 C 806.757812 127.394531 807.863281 119.703125 839.113281 83.417969 C 839.429688 83.050781 839.519531 82.484375 839.710938 82.011719 C 838.707031 80.242188 837.332031 78.859375 835.597656 77.871094 Z M 376.890625 210.699219 C 363.554688 213.292969 361.25 240.023438 368.464844 261.144531 C 368.589844 261.503906 369.277344 261.667969 369.871094 262.027344 C 377.5 210.796875 377.238281 214.042969 376.890625 210.699219 Z M 835.136719 616.332031 C 832.945312 613.769531 830.355469 612.425781 827.375 612.289062 C 817.910156 619.164062 813.4375 629.621094 813.007812 641.3125 C 812.980469 642.117188 813.582031 642.691406 814.605469 642.84375 C 835.609375 616.695312 834.972656 617.832031 835.136719 616.332031 Z M 825.429688 70.554688 C 822.792969 67.21875 808.152344 74.964844 802.996094 91.601562 C 799.375 103.269531 802.148438 98.386719 825.007812 72.019531 C 825.304688 71.675781 825.292969 71.0625 825.429688 70.554688 Z M 825.429688 70.554688 " fill-opacity="1" fill-rule="nonzero"/><path fill="#e5ccfd" d="M 837.289062 362.859375 C 841.359375 361.019531 850.351562 353.539062 852.941406 350.710938 C 859.078125 344 858.773438 338.273438 868.648438 343.957031 C 869.527344 350.203125 865.609375 356.515625 861.234375 361.058594 C 857.679688 364.75 849.84375 372.742188 844.003906 377.953125 C 843.828125 379.148438 843.683594 379.941406 845.050781 380.5 C 846.734375 380.9375 861.03125 371.546875 871.210938 362.546875 C 881.632812 353.335938 884.125 343.539062 888.570312 339.929688 C 891.335938 339.328125 894.097656 339.246094 896.285156 342.601562 C 892.453125 355.96875 887.160156 368.582031 863.398438 388.40625 C 857.101562 393.660156 849.8125 396.523438 841.503906 395.835938 C 837.332031 395.488281 833.054688 396.796875 828.984375 395.074219 C 825.703125 393.011719 825.277344 387.035156 824.320312 385.308594 C 819.292969 376.257812 813.242188 367.996094 805.175781 361.382812 C 800.0625 357.1875 796.101562 358.417969 791.269531 363.070312 C 776.355469 377.4375 773.644531 391.941406 766.859375 397.707031 C 759.199219 400.847656 756.765625 400.390625 752.359375 395.019531 C 750.292969 388.53125 757.015625 373.46875 760.320312 367.425781 C 772.003906 346.078125 797.339844 342.5625 814.65625 347.644531 C 828.9375 351.835938 832.773438 358.335938 837.289062 362.859375 Z M 837.289062 362.859375 " fill-opacity="1" fill-rule="nonzero"/><path fill="#e5ccfd" d="M 621.175781 519.109375 C 624.785156 517.253906 631.433594 517.273438 633.652344 523.203125 C 637.882812 534.519531 643.03125 549 655.195312 562.394531 C 679.484375 589.144531 705.417969 588.894531 726.554688 567.988281 C 741.207031 553.496094 744.890625 537.375 747.953125 525.800781 C 751.535156 521.433594 755.929688 519.554688 761.335938 520.1875 C 766.304688 520.769531 770.496094 522.589844 772.800781 528.03125 C 771.878906 541.265625 763.226562 560.859375 747.972656 574.691406 C 703.949219 614.621094 625.332031 589.527344 619.71875 523.640625 C 619.582031 522.039062 619.988281 520.5 621.175781 519.113281 Z M 621.175781 519.109375 " fill-opacity="1" fill-rule="nonzero"/><path fill="#e5ccfd" d="M 553.699219 425.507812 C 603.066406 429.371094 604.160156 469.71875 579.015625 485.582031 C 563.9375 495.097656 543.878906 494.664062 528.894531 487.839844 C 504.273438 476.625 504.105469 453.746094 517.777344 440.675781 C 521.179688 437.421875 525.253906 434.945312 528.726562 431.710938 C 533.089844 427.648438 546.941406 425.457031 553.699219 425.507812 Z M 544.53125 480.582031 C 556.671875 480.359375 565.523438 474.378906 571.292969 463.589844 C 575.855469 455.050781 573.347656 441.332031 562.574219 436.917969 C 554.054688 436.21875 553.992188 436.234375 540.835938 442.578125 C 527.71875 459.164062 532.644531 475.070312 544.53125 480.582031 Z M 544.53125 480.582031 " fill-opacity="1" fill-rule="nonzero"/><path fill="#e5ccfd" d="M 598.117188 364.40625 C 585.390625 367.820312 575.65625 374.902344 566.398438 382.855469 C 563.847656 385.046875 563.285156 388.253906 561.984375 390.550781 C 558.757812 392.996094 555.585938 392.390625 552.375 392.144531 C 549.519531 390.992188 547.203125 388.652344 543.953125 388.09375 C 537.40625 386.964844 521.183594 370.695312 515.070312 361.839844 C 513.140625 359.042969 511.671875 355.921875 510.09375 352.894531 C 508.007812 348.882812 511.9375 345.101562 514.742188 346.789062 C 517.269531 348.3125 517.683594 354.378906 537.007812 368.957031 C 540.777344 371.800781 544.492188 374.753906 549.078125 377.035156 C 551.820312 375.4375 553.332031 372.78125 555.152344 370.042969 C 549.230469 363.140625 541.820312 357.65625 538.878906 349.070312 C 539.980469 347.066406 541.613281 345.695312 543.773438 344.957031 C 549.867188 350.859375 555.722656 357.332031 563.636719 360.875 C 566.421875 360.570312 567.984375 358.589844 569.964844 357.382812 C 591.300781 344.402344 621.25 345.601562 639.25 369.484375 C 641.449219 372.402344 643.121094 375.738281 644.875 378.96875 C 646.285156 381.566406 646.695312 384.453125 646.515625 387.394531 C 645.984375 396.035156 635.21875 398.035156 629.601562 392.984375 C 620.75 385.035156 613.078125 371.453125 598.117188 364.40625 Z M 598.117188 364.40625 " fill-opacity="1" fill-rule="nonzero"/><path fill="#e5ccfd" d="M 877.878906 444.261719 C 897.804688 456.605469 891.011719 481.890625 873.417969 494.222656 C 839.105469 518.265625 777.710938 485.082031 826.378906 446.671875 C 840.527344 435.503906 863.210938 435.179688 877.878906 444.261719 Z M 836.015625 455.84375 C 833.925781 459.410156 828.472656 466.769531 829.789062 477.570312 C 831.613281 492.519531 842.285156 494.976562 856.300781 487.550781 C 877.660156 476.234375 875.777344 453.773438 862.683594 447.878906 C 852.960938 445.324219 845.015625 450.070312 836.015625 455.84375 Z M 836.015625 455.84375 " fill-opacity="1" fill-rule="nonzero"/></svg>